<?xml version="1.0" encoding="iso-8859-1"?>
<!-- Generator: Adobe Illustrator 18.0.0, SVG Export Plug-In . SVG Version: 6.00 Build 0)  -->
<!DOCTYPE svg PUBLIC "-//W3C//DTD SVG 1.1//EN" "http://www.w3.org/Graphics/SVG/1.1/DTD/svg11.dtd">
<svg xmlns="http://www.w3.org/2000/svg" xmlns:xlink="http://www.w3.org/1999/xlink" version="1.1" id="Capa_1" x="0px" y="0px" viewBox="0 0 371.643 371.643" style="enable-background:new 0 0 371.643 371.643;" xml:space="preserve" width="512px" height="512px">
<g>
	<g>
		<path d="M219.201,303.029h-94.117c-5.514,0-10-4.486-10-10V30c0-5.514,4.486-10,10-10h123.768c5.514,0,10,4.486,10,10v149.184    c2.917-1.824,6.38-2.901,10.286-2.901c3.543,0,6.847,0.946,9.714,2.579V30c0-16.542-13.458-30-30-30H125.084    c-16.542,0-30,13.458-30,30v263.029c0,16.542,13.458,30,30,30h101.768c-1.181-1.202-2.207-2.573-2.983-4.152    C221.528,314.113,219.939,308.665,219.201,303.029z" fill="#222222"/>
	</g>
	<g>
		<rect x="105.084" y="38.271" width="163.768" height="20" fill="#222222"/>
	</g>
	<g>
		<path d="M222.639,278.782c0-5.42,2.251-10.392,5.852-14.023H105.084v20h118.497C222.972,282.865,222.639,280.857,222.639,278.782z    " fill="#222222"/>
	</g>
	<g>
		<path d="M256.96,371.643c-2.845,0-5.669-1.207-7.648-3.551c-3.562-4.222-3.027-10.53,1.194-14.092    c36.949-31.177,44.113-77.465,49.869-114.658c0.421-2.719,0.832-5.376,1.245-7.962c1.935-12.11,0.079-21.509-5.672-28.734    c-8.139-10.223-24.681-16.456-47.836-18.025c-8.999-0.608-22.76,0.929-23.767,7.666c-1.663,11.127,9.274,15.524,9.741,15.706    c0.363,0.142,0.717,0.304,1.061,0.486c11.56,6.143,17.841,13.994,18.669,23.337c1.089,12.301-8.15,21.381-11.217,24.033    c-18.369,21.128-21.501,39.782-9.581,57.012c3.142,4.542,2.007,10.772-2.535,13.913c-4.541,3.145-10.771,2.007-13.913-2.534    c-9.996-14.45-21.792-44.34,11.511-82.169c0.405-0.461,0.852-0.883,1.334-1.261c1.924-1.567,4.688-5.1,4.477-7.251    c-0.15-1.54-2.26-4.22-7.701-7.188c-9.199-3.856-24.75-16.134-21.626-37.04c2.528-16.918,19.734-26.36,44.898-24.666    c29.328,1.988,50.231,10.576,62.132,25.524c9.317,11.703,12.606,26.623,9.775,44.345c-0.408,2.555-0.814,5.181-1.23,7.866    c-5.935,38.354-14.065,90.881-56.736,126.885C261.528,370.869,259.238,371.643,256.96,371.643z" fill="#222222"/>
	</g>
	<g>
		<path d="M104.289,252.809h-25c-16.542,0-30-13.458-30-30v-1.333c0-16.542,13.458-30,30-30h25c5.523,0,10,4.477,10,10v41.333    C114.289,248.331,109.811,252.809,104.289,252.809z M79.289,211.476c-5.514,0-10,4.486-10,10v1.333c0,5.514,4.486,10,10,10h15    v-21.333H79.289z" fill="#222222"/>
	</g>
	<g>
		<path d="M104.289,294.142h-17.5c-16.542,0-30-13.458-30-30v-1.333c0-16.542,13.458-30,30-30h17.5c5.523,0,10,4.478,10,10v41.333    C114.289,289.664,109.811,294.142,104.289,294.142z M86.789,252.809c-5.514,0-10,4.486-10,10v1.333c0,5.514,4.486,10,10,10h7.5    v-21.333H86.789z" fill="#222222"/>
	</g>
	<g>
		<path d="M104.289,211.476h-17.5c-16.542,0-30-13.458-30-30v-1.333c0-16.542,13.458-30,30-30h17.5c5.523,0,10,4.478,10,10v41.333    C114.289,206.998,109.811,211.476,104.289,211.476z M86.789,170.143c-5.514,0-10,4.486-10,10v1.333c0,5.514,4.486,10,10,10h7.5    v-21.333H86.789z" fill="#222222"/>
	</g>
	<g>
		<path d="M122.255,312.976c0,0,0,27.962,13.367,47.167" fill="#222222"/>
		<path d="M135.631,370.143c-3.163,0-6.273-1.496-8.216-4.288c-14.987-21.533-15.159-51.61-15.159-52.88c0-5.522,4.477-10,10-10    c5.518,0,9.993,4.47,10,9.986c0.003,0.44,0.264,25.218,11.574,41.468c3.155,4.533,2.038,10.766-2.495,13.921    C139.594,369.561,137.602,370.143,135.631,370.143z" fill="#222222"/>
	</g>
	<g>
		<g>
			<path d="M155.887,116.414c-5.523,0-10-4.478-10-10v-18.92c0-5.522,4.477-10,10-10h18.92c5.523,0,10,4.478,10,10     c0,5.522-4.477,10-10,10h-8.92v8.92C165.887,111.937,161.41,116.414,155.887,116.414z" fill="#222222"/>
		</g>
		<g>
			<path d="M218.049,116.414c-5.523,0-10-4.478-10-10v-8.92h-8.919c-5.523,0-10-4.478-10-10c0-5.522,4.477-10,10-10h18.919     c5.523,0,10,4.478,10,10v18.92C228.049,111.937,223.572,116.414,218.049,116.414z" fill="#222222"/>
		</g>
		<g>
			<path d="M218.049,158.533H199.13c-5.523,0-10-4.478-10-10c0-5.523,4.477-10,10-10h8.919v-8.92c0-5.522,4.477-10,10-10     c5.523,0,10,4.478,10,10v18.92C228.049,154.056,223.572,158.533,218.049,158.533z" fill="#222222"/>
		</g>
		<g>
			<path d="M174.807,158.533h-18.92c-5.523,0-10-4.478-10-10v-18.92c0-5.522,4.477-10,10-10c5.523,0,10,4.478,10,10v8.92h8.92     c5.523,0,10,4.477,10,10C184.807,154.056,180.33,158.533,174.807,158.533z" fill="#222222"/>
		</g>
	</g>
	<g>
		<circle cx="186.968" cy="118.014" r="12.981" fill="#222222"/>
	</g>
</g>
<g>
</g>
<g>
</g>
<g>
</g>
<g>
</g>
<g>
</g>
<g>
</g>
<g>
</g>
<g>
</g>
<g>
</g>
<g>
</g>
<g>
</g>
<g>
</g>
<g>
</g>
<g>
</g>
<g>
</g>
</svg>
