<?xml version="1.0" encoding="UTF-8" standalone="no"?>
<!DOCTYPE svg PUBLIC "-//W3C//DTD SVG 1.1//EN" "http://www.w3.org/Graphics/SVG/1.1/DTD/svg11.dtd">
<svg version="1.1" xmlns="http://www.w3.org/2000/svg" xmlns:xlink="http://www.w3.org/1999/xlink" preserveAspectRatio="xMidYMid meet" viewBox="0 0 128 128" width="128" height="128"><defs><path d="M64.85 65.35C64.31 65.61 63.69 65.61 63.15 65.35C59.15 63.44 27.14 48.12 23.14 46.2C22.46 45.88 22.02 45.19 22.02 44.43C22.02 40.99 22.02 13.45 22.02 10.01C22.02 8.93 22.9 8.04 23.99 8.04C31.99 8.04 96.01 8.04 104.01 8.04C105.1 8.04 105.98 8.93 105.98 10.01C105.98 13.45 105.98 40.99 105.98 44.43C105.98 45.19 105.54 45.88 104.86 46.2C96.86 50.03 68.85 63.44 64.85 65.35Z" id="c2nCAicH7y"></path><path d="M95.8 8.04L95.8 45.67L58.91 63.32C61.46 64.54 62.87 65.22 63.15 65.35C63.69 65.61 64.31 65.61 64.85 65.35C68.85 63.44 100.86 48.12 104.86 46.2C105.54 45.88 105.98 45.19 105.98 44.43C105.98 40.99 105.98 13.45 105.98 10.01C105.98 8.93 105.1 8.04 104.01 8.04C102.91 8.04 100.18 8.04 95.8 8.04Z" id="o1ZnGZaJ75"></path><path d="M49.13 8.04L49.13 58.64C57.54 62.67 62.22 64.9 63.15 65.35C63.69 65.61 64.31 65.61 64.85 65.35C65.78 64.9 70.46 62.67 78.87 58.64L78.87 8.04L78.87 8.04L49.13 8.04Z" id="baCyPsGq4"></path><path d="M63.15 65.35C63.69 65.61 64.31 65.61 64.85 65.35C65.78 64.9 70.46 62.67 78.87 58.64L78.87 53.77L58.91 63.32L60.98 64.31C62.28 64.94 63.01 65.28 63.15 65.35Z" id="a2v3S2mKKt"></path><path d="M72.95 82.57C73.05 82.79 73.26 82.94 73.5 82.97C75.35 83.24 90.18 85.39 92.04 85.66C92.64 85.75 92.88 86.49 92.44 86.91C91.1 88.22 80.37 98.68 79.03 99.99C78.85 100.15 78.78 100.4 78.82 100.63C79.13 102.48 81.67 117.25 81.98 119.1C82.08 119.7 81.46 120.15 80.92 119.87C79.27 119 66 112.02 64.34 111.15C64.13 111.04 63.87 111.04 63.66 111.15C62 112.02 48.73 119 47.08 119.87C46.54 120.15 45.91 119.7 46.02 119.1C46.33 117.25 48.87 102.48 49.18 100.63C49.22 100.4 49.15 100.15 48.97 99.99C47.63 98.68 36.9 88.22 35.56 86.91C35.12 86.49 35.36 85.75 35.96 85.66C37.82 85.39 52.65 83.24 54.5 82.97C54.74 82.94 54.95 82.79 55.05 82.57C55.88 80.89 62.52 67.45 63.35 65.77C63.61 65.23 64.39 65.23 64.65 65.77C66.31 69.13 72.12 80.89 72.95 82.57Z" id="b8glo8105"></path><path d="M73.08 82.76C73.03 82.7 72.98 82.64 72.95 82.57C72.12 80.89 65.48 67.45 64.65 65.77C64.39 65.23 63.61 65.23 63.35 65.77C63.05 66.37 61.56 69.38 58.89 74.8L62.49 82.09C68.85 82.49 72.38 82.71 73.08 82.76Z" id="n1DqZjtGvo"></path><path d="M92.04 85.66C91.54 85.59 89.07 85.23 84.61 84.58L68.53 100.26L71 114.65C76.95 117.78 80.26 119.52 80.92 119.87C81.46 120.15 82.09 119.7 81.98 119.1C81.67 117.25 79.13 102.48 78.82 100.63C78.77 100.4 78.85 100.16 79.03 99.99C79.92 99.12 84.39 94.76 92.44 86.91C92.57 86.14 92.44 85.72 92.04 85.66Z" id="bbfLBH7BD"></path></defs><g><g><g><g><use xlink:href="#c2nCAicH7y" opacity="1" fill="#ff4c4c" fill-opacity="1"></use><g><use xlink:href="#c2nCAicH7y" opacity="1" fill-opacity="0" stroke="#000000" stroke-width="1" stroke-opacity="0"></use></g></g><g><use xlink:href="#o1ZnGZaJ75" opacity="1" fill="#ea2828" fill-opacity="1"></use><g><use xlink:href="#o1ZnGZaJ75" opacity="1" fill-opacity="0" stroke="#000000" stroke-width="1" stroke-opacity="0"></use></g></g><g><use xlink:href="#baCyPsGq4" opacity="1" fill="#e1effb" fill-opacity="1"></use><g><use xlink:href="#baCyPsGq4" opacity="1" fill-opacity="0" stroke="#000000" stroke-width="1" stroke-opacity="0"></use></g></g><g><use xlink:href="#a2v3S2mKKt" opacity="1" fill="#c3d8e5" fill-opacity="1"></use><g><use xlink:href="#a2v3S2mKKt" opacity="1" fill-opacity="0" stroke="#000000" stroke-width="1" stroke-opacity="0"></use></g></g><g><use xlink:href="#b8glo8105" opacity="1" fill="#ffb125" fill-opacity="1"></use><g><use xlink:href="#b8glo8105" opacity="1" fill-opacity="0" stroke="#000000" stroke-width="1" stroke-opacity="0"></use></g></g><g><use xlink:href="#n1DqZjtGvo" opacity="1" fill="#ff901d" fill-opacity="1"></use><g><use xlink:href="#n1DqZjtGvo" opacity="1" fill-opacity="0" stroke="#000000" stroke-width="1" stroke-opacity="0"></use></g></g><g><use xlink:href="#bbfLBH7BD" opacity="1" fill="#ff901d" fill-opacity="1"></use><g><use xlink:href="#bbfLBH7BD" opacity="1" fill-opacity="0" stroke="#000000" stroke-width="1" stroke-opacity="0"></use></g></g></g></g></g></svg>